<svg width="65" height="65" xmlns="http://www.w3.org/2000/svg" xmlns:xlink="http://www.w3.org/1999/xlink" xml:space="preserve" overflow="hidden"><g transform="translate(-163 -127)"><path d="M224.148 159.5C224.148 175.53 211.322 188.526 195.5 188.526 179.678 188.526 166.852 175.53 166.852 159.5 166.852 143.47 179.678 130.474 195.5 130.474 211.322 130.474 224.148 143.47 224.148 159.5Z" stroke="#344752" stroke-width="6.94869" stroke-miterlimit="10" fill="none"/><path d="M181.225 167.352C181.831 168.116 186.655 173.943 194.845 173.973 203.551 174.003 208.524 167.471 209.03 166.786" stroke="#344752" stroke-width="4.96335" stroke-linecap="round" stroke-miterlimit="10" fill="none"/><path d="M179.707 157.187C179.697 152.085 182.337 149.246 185.037 149.246 187.737 149.246 189.693 152.74 189.673 157.187L179.707 157.187Z" stroke="#344752" stroke-width="1.98534" stroke-miterlimit="10" fill="#344752"/><path d="M200.533 157.187C200.523 152.085 203.163 149.246 205.863 149.246 208.564 149.246 210.519 152.74 210.499 157.187L200.533 157.187Z" stroke="#344752" stroke-width="1.98534" stroke-miterlimit="10" fill="#344752"/></g></svg>